<mxfile host="app.diagrams.net" modified="2021-11-27T09:29:43.092Z" agent="5.0 (Windows NT 10.0; Win64; x64) AppleWebKit/537.36 (KHTML, like Gecko) Chrome/96.0.4664.45 Safari/537.36" etag="kmCq5ooXjUEfs6osAIeG" version="15.8.6" type="github" pages="2">
  <diagram id="4iuk9C3c1TCA9W_Shy5l" name="第 1 页">
    <mxGraphModel dx="2249" dy="762" grid="1" gridSize="10" guides="1" tooltips="1" connect="1" arrows="1" fold="1" page="1" pageScale="1" pageWidth="827" pageHeight="1169" math="0" shadow="0">
      <root>
        <mxCell id="0" />
        <mxCell id="1" parent="0" />
        <mxCell id="2UPqbbec-4hA788skLOh-12" value="添加UDF" style="swimlane;sketch=1;" parent="1" vertex="1">
          <mxGeometry x="-510" y="80" width="790" height="560" as="geometry" />
        </mxCell>
        <mxCell id="2UPqbbec-4hA788skLOh-27" value="com.xxx.sql.MyFunction" style="rounded=0;whiteSpace=wrap;html=1;sketch=1;" parent="2UPqbbec-4hA788skLOh-12" vertex="1">
          <mxGeometry x="180" y="140" width="210" height="30" as="geometry" />
        </mxCell>
        <mxCell id="2UPqbbec-4hA788skLOh-28" value="函数名" style="text;html=1;strokeColor=#6c8ebf;fillColor=#dae8fc;align=center;verticalAlign=middle;whiteSpace=wrap;rounded=0;sketch=1;" parent="2UPqbbec-4hA788skLOh-12" vertex="1">
          <mxGeometry x="65" y="100" width="40" height="20" as="geometry" />
        </mxCell>
        <mxCell id="2UPqbbec-4hA788skLOh-29" value="类名" style="text;html=1;strokeColor=#6c8ebf;fillColor=#dae8fc;align=center;verticalAlign=middle;whiteSpace=wrap;rounded=0;sketch=1;" parent="2UPqbbec-4hA788skLOh-12" vertex="1">
          <mxGeometry x="257" y="100" width="40" height="20" as="geometry" />
        </mxCell>
        <mxCell id="2UPqbbec-4hA788skLOh-30" value="MY_UDF" style="rounded=0;whiteSpace=wrap;html=1;sketch=1;" parent="2UPqbbec-4hA788skLOh-12" vertex="1">
          <mxGeometry x="20" y="140" width="130" height="30" as="geometry" />
        </mxCell>
        <mxCell id="2UPqbbec-4hA788skLOh-32" value="描述" style="text;html=1;strokeColor=#6c8ebf;fillColor=#dae8fc;align=center;verticalAlign=middle;whiteSpace=wrap;rounded=0;sketch=1;" parent="2UPqbbec-4hA788skLOh-12" vertex="1">
          <mxGeometry x="590" y="100" width="40" height="20" as="geometry" />
        </mxCell>
        <mxCell id="2UPqbbec-4hA788skLOh-41" value="加载UDF" style="text;html=1;strokeColor=#6c8ebf;fillColor=#dae8fc;align=center;verticalAlign=middle;whiteSpace=wrap;rounded=0;sketch=1;" parent="2UPqbbec-4hA788skLOh-12" vertex="1">
          <mxGeometry x="660" y="50" width="70" height="20" as="geometry" />
        </mxCell>
        <mxCell id="2UPqbbec-4hA788skLOh-40" value="" style="rounded=0;whiteSpace=wrap;html=1;sketch=1;" parent="2UPqbbec-4hA788skLOh-12" vertex="1">
          <mxGeometry x="60" y="45" width="560" height="30" as="geometry" />
        </mxCell>
        <mxCell id="2UPqbbec-4hA788skLOh-43" value="" style="rounded=0;whiteSpace=wrap;html=1;sketch=1;" parent="2UPqbbec-4hA788skLOh-12" vertex="1">
          <mxGeometry x="180" y="200" width="210" height="30" as="geometry" />
        </mxCell>
        <mxCell id="2UPqbbec-4hA788skLOh-44" value="" style="rounded=0;whiteSpace=wrap;html=1;sketch=1;" parent="2UPqbbec-4hA788skLOh-12" vertex="1">
          <mxGeometry x="20" y="200" width="130" height="30" as="geometry" />
        </mxCell>
        <mxCell id="2UPqbbec-4hA788skLOh-57" value="" style="shape=image;html=1;verticalAlign=top;verticalLabelPosition=bottom;labelBackgroundColor=#ffffff;imageAspect=0;aspect=fixed;image=https://cdn3.iconfinder.com/data/icons/flat-actions-icons-9/792/Tick_Mark_Dark-128.png;sketch=1;" parent="2UPqbbec-4hA788skLOh-12" vertex="1">
          <mxGeometry x="720" y="136" width="38" height="38" as="geometry" />
        </mxCell>
        <mxCell id="2UPqbbec-4hA788skLOh-58" value="" style="shape=image;html=1;verticalAlign=top;verticalLabelPosition=bottom;labelBackgroundColor=#ffffff;imageAspect=0;aspect=fixed;image=https://cdn3.iconfinder.com/data/icons/flat-actions-icons-9/792/Tick_Mark_Dark-128.png;sketch=1;" parent="2UPqbbec-4hA788skLOh-12" vertex="1">
          <mxGeometry x="720" y="200" width="38" height="38" as="geometry" />
        </mxCell>
        <mxCell id="2UPqbbec-4hA788skLOh-59" value="" style="shape=image;html=1;verticalAlign=top;verticalLabelPosition=bottom;labelBackgroundColor=#ffffff;imageAspect=0;aspect=fixed;image=https://cdn3.iconfinder.com/data/icons/flat-actions-icons-9/792/Tick_Mark_Dark-128.png;sketch=1;" parent="2UPqbbec-4hA788skLOh-12" vertex="1">
          <mxGeometry x="720" y="261" width="38" height="38" as="geometry" />
        </mxCell>
        <mxCell id="2UPqbbec-4hA788skLOh-61" value="" style="shape=image;html=1;verticalAlign=top;verticalLabelPosition=bottom;labelBackgroundColor=#ffffff;imageAspect=0;aspect=fixed;image=https://cdn4.iconfinder.com/data/icons/icocentre-free-icons/114/f-cross_256-128.png;sketch=1;" parent="2UPqbbec-4hA788skLOh-12" vertex="1">
          <mxGeometry x="725" y="328.5" width="28" height="28" as="geometry" />
        </mxCell>
        <mxCell id="2UPqbbec-4hA788skLOh-64" value="确定" style="rounded=1;html=1;shadow=0;dashed=0;whiteSpace=wrap;fontSize=10;fillColor=#dae8fc;align=center;strokeColor=#6c8ebf;sketch=1;" parent="2UPqbbec-4hA788skLOh-12" vertex="1">
          <mxGeometry x="530" y="500" width="105.5" height="16.88" as="geometry" />
        </mxCell>
        <mxCell id="2UPqbbec-4hA788skLOh-68" value="" style="shape=image;html=1;verticalAlign=top;verticalLabelPosition=bottom;labelBackgroundColor=#ffffff;imageAspect=0;aspect=fixed;image=https://cdn4.iconfinder.com/data/icons/ionicons/512/icon-ios7-minus-outline-128.png;sketch=1;" parent="2UPqbbec-4hA788skLOh-12" vertex="1">
          <mxGeometry x="691" y="140" width="29" height="29" as="geometry" />
        </mxCell>
        <mxCell id="2UPqbbec-4hA788skLOh-69" value="" style="shape=image;html=1;verticalAlign=top;verticalLabelPosition=bottom;labelBackgroundColor=#ffffff;imageAspect=0;aspect=fixed;image=https://cdn4.iconfinder.com/data/icons/ionicons/512/icon-ios7-minus-outline-128.png;sketch=1;" parent="2UPqbbec-4hA788skLOh-12" vertex="1">
          <mxGeometry x="691" y="204.5" width="29" height="29" as="geometry" />
        </mxCell>
        <mxCell id="2UPqbbec-4hA788skLOh-70" value="" style="shape=image;html=1;verticalAlign=top;verticalLabelPosition=bottom;labelBackgroundColor=#ffffff;imageAspect=0;aspect=fixed;image=https://cdn4.iconfinder.com/data/icons/ionicons/512/icon-ios7-minus-outline-128.png;sketch=1;" parent="2UPqbbec-4hA788skLOh-12" vertex="1">
          <mxGeometry x="691" y="265.5" width="29" height="29" as="geometry" />
        </mxCell>
        <mxCell id="2UPqbbec-4hA788skLOh-71" value="" style="shape=image;html=1;verticalAlign=top;verticalLabelPosition=bottom;labelBackgroundColor=#ffffff;imageAspect=0;aspect=fixed;image=https://cdn4.iconfinder.com/data/icons/ionicons/512/icon-ios7-minus-outline-128.png;sketch=1;" parent="2UPqbbec-4hA788skLOh-12" vertex="1">
          <mxGeometry x="690" y="328.5" width="29" height="29" as="geometry" />
        </mxCell>
        <mxCell id="eT6F7r95OTAMLALFbOT9-1" value="" style="rounded=0;whiteSpace=wrap;html=1;sketch=1;" parent="2UPqbbec-4hA788skLOh-12" vertex="1">
          <mxGeometry x="565" y="140" width="95" height="30" as="geometry" />
        </mxCell>
        <mxCell id="eT6F7r95OTAMLALFbOT9-3" value="" style="rounded=0;whiteSpace=wrap;html=1;sketch=1;" parent="2UPqbbec-4hA788skLOh-12" vertex="1">
          <mxGeometry x="565" y="200" width="95" height="30" as="geometry" />
        </mxCell>
        <mxCell id="eT6F7r95OTAMLALFbOT9-5" value="" style="rounded=0;whiteSpace=wrap;html=1;sketch=1;" parent="2UPqbbec-4hA788skLOh-12" vertex="1">
          <mxGeometry x="565" y="320" width="95" height="30" as="geometry" />
        </mxCell>
        <mxCell id="eT6F7r95OTAMLALFbOT9-4" value="" style="rounded=0;whiteSpace=wrap;html=1;sketch=1;" parent="2UPqbbec-4hA788skLOh-12" vertex="1">
          <mxGeometry x="565" y="260" width="95" height="30" as="geometry" />
        </mxCell>
        <mxCell id="NZh_w0DTGFoxd7zRySIz-1" value="方法名" style="text;html=1;strokeColor=#6c8ebf;fillColor=#dae8fc;align=center;verticalAlign=middle;whiteSpace=wrap;rounded=0;sketch=1;" vertex="1" parent="2UPqbbec-4hA788skLOh-12">
          <mxGeometry x="455" y="100" width="40" height="20" as="geometry" />
        </mxCell>
        <mxCell id="NZh_w0DTGFoxd7zRySIz-2" value="function1" style="rounded=0;whiteSpace=wrap;html=1;sketch=1;" vertex="1" parent="2UPqbbec-4hA788skLOh-12">
          <mxGeometry x="430" y="140" width="95" height="30" as="geometry" />
        </mxCell>
        <mxCell id="NZh_w0DTGFoxd7zRySIz-3" value="" style="rounded=0;whiteSpace=wrap;html=1;sketch=1;" vertex="1" parent="2UPqbbec-4hA788skLOh-12">
          <mxGeometry x="430" y="200" width="95" height="30" as="geometry" />
        </mxCell>
        <mxCell id="NZh_w0DTGFoxd7zRySIz-4" value="" style="rounded=0;whiteSpace=wrap;html=1;sketch=1;" vertex="1" parent="2UPqbbec-4hA788skLOh-12">
          <mxGeometry x="430" y="320" width="95" height="30" as="geometry" />
        </mxCell>
        <mxCell id="NZh_w0DTGFoxd7zRySIz-5" value="" style="rounded=0;whiteSpace=wrap;html=1;sketch=1;" vertex="1" parent="2UPqbbec-4hA788skLOh-12">
          <mxGeometry x="430" y="260" width="95" height="30" as="geometry" />
        </mxCell>
        <mxCell id="2UPqbbec-4hA788skLOh-46" value="" style="rounded=0;whiteSpace=wrap;html=1;sketch=1;" parent="1" vertex="1">
          <mxGeometry x="-330" y="340" width="210" height="30" as="geometry" />
        </mxCell>
        <mxCell id="2UPqbbec-4hA788skLOh-47" value="" style="rounded=0;whiteSpace=wrap;html=1;sketch=1;" parent="1" vertex="1">
          <mxGeometry x="-490" y="340" width="130" height="30" as="geometry" />
        </mxCell>
        <mxCell id="2UPqbbec-4hA788skLOh-49" value="" style="rounded=0;whiteSpace=wrap;html=1;sketch=1;" parent="1" vertex="1">
          <mxGeometry x="-330" y="400" width="210" height="30" as="geometry" />
        </mxCell>
        <mxCell id="2UPqbbec-4hA788skLOh-50" value="" style="rounded=0;whiteSpace=wrap;html=1;sketch=1;" parent="1" vertex="1">
          <mxGeometry x="-490" y="400" width="130" height="30" as="geometry" />
        </mxCell>
        <mxCell id="2UPqbbec-4hA788skLOh-66" value="取消" style="rounded=1;html=1;shadow=0;dashed=0;whiteSpace=wrap;fontSize=10;fillColor=#dae8fc;align=center;strokeColor=#6c8ebf;sketch=1;" parent="1" vertex="1">
          <mxGeometry x="150" y="580" width="105.5" height="16.88" as="geometry" />
        </mxCell>
      </root>
    </mxGraphModel>
  </diagram>
  <diagram id="IbhHh8VE6QM9-RpfRE3v" name="第 2 页">
    <mxGraphModel dx="1422" dy="762" grid="1" gridSize="10" guides="1" tooltips="1" connect="1" arrows="1" fold="1" page="1" pageScale="1" pageWidth="827" pageHeight="1169" math="0" shadow="0">
      <root>
        <mxCell id="IIgY_rsshR4AEc-FguAB-0" />
        <mxCell id="IIgY_rsshR4AEc-FguAB-1" parent="IIgY_rsshR4AEc-FguAB-0" />
        <mxCell id="_fa85mMK6ymNcFbLeZfS-16" value="华为云" style="swimlane;labelBackgroundColor=none;comic=0;sketch=1;fontSize=15;fontColor=#000000;fillColor=none;" parent="IIgY_rsshR4AEc-FguAB-1" vertex="1">
          <mxGeometry x="50" y="50" width="880" height="710" as="geometry" />
        </mxCell>
        <mxCell id="_fa85mMK6ymNcFbLeZfS-17" value="可信智能计算服务" style="swimlane;fontStyle=0;childLayout=stackLayout;horizontal=1;startSize=26;fillColor=none;horizontalStack=0;resizeParent=1;resizeParentMax=0;resizeLast=0;collapsible=1;marginBottom=0;labelBackgroundColor=none;comic=0;sketch=1;fontSize=15;fontColor=#000000;" parent="_fa85mMK6ymNcFbLeZfS-16" vertex="1">
          <mxGeometry x="10" y="30" width="140" height="182" as="geometry" />
        </mxCell>
        <mxCell id="_fa85mMK6ymNcFbLeZfS-18" value="总览" style="text;strokeColor=none;fillColor=none;align=left;verticalAlign=top;spacingLeft=4;spacingRight=4;overflow=hidden;rotatable=0;points=[[0,0.5],[1,0.5]];portConstraint=eastwest;labelBackgroundColor=none;comic=0;sketch=1;fontSize=15;fontColor=#000000;" parent="_fa85mMK6ymNcFbLeZfS-17" vertex="1">
          <mxGeometry y="26" width="140" height="26" as="geometry" />
        </mxCell>
        <mxCell id="_fa85mMK6ymNcFbLeZfS-19" value="联盟管理" style="text;strokeColor=none;fillColor=none;align=left;verticalAlign=top;spacingLeft=4;spacingRight=4;overflow=hidden;rotatable=0;points=[[0,0.5],[1,0.5]];portConstraint=eastwest;labelBackgroundColor=#E6E6E6;comic=0;sketch=1;fontSize=15;fontColor=#0000FF;fontStyle=1" parent="_fa85mMK6ymNcFbLeZfS-17" vertex="1">
          <mxGeometry y="52" width="140" height="26" as="geometry" />
        </mxCell>
        <mxCell id="_fa85mMK6ymNcFbLeZfS-20" value="联盟作业" style="text;strokeColor=none;fillColor=none;align=left;verticalAlign=top;spacingLeft=4;spacingRight=4;overflow=hidden;rotatable=0;points=[[0,0.5],[1,0.5]];portConstraint=eastwest;labelBackgroundColor=none;comic=0;sketch=1;fontSize=15;fontColor=#000000;" parent="_fa85mMK6ymNcFbLeZfS-17" vertex="1">
          <mxGeometry y="78" width="140" height="26" as="geometry" />
        </mxCell>
        <mxCell id="_fa85mMK6ymNcFbLeZfS-21" value="通知管理" style="text;strokeColor=none;fillColor=none;align=left;verticalAlign=top;spacingLeft=4;spacingRight=4;overflow=hidden;rotatable=0;points=[[0,0.5],[1,0.5]];portConstraint=eastwest;labelBackgroundColor=none;comic=0;sketch=1;fontSize=15;fontColor=#000000;" parent="_fa85mMK6ymNcFbLeZfS-17" vertex="1">
          <mxGeometry y="104" width="140" height="26" as="geometry" />
        </mxCell>
        <mxCell id="_fa85mMK6ymNcFbLeZfS-22" value="计算节点管理" style="text;strokeColor=none;fillColor=none;align=left;verticalAlign=top;spacingLeft=4;spacingRight=4;overflow=hidden;rotatable=0;points=[[0,0.5],[1,0.5]];portConstraint=eastwest;labelBackgroundColor=none;comic=0;sketch=1;fontSize=15;fontColor=#000000;" parent="_fa85mMK6ymNcFbLeZfS-17" vertex="1">
          <mxGeometry y="130" width="140" height="26" as="geometry" />
        </mxCell>
        <mxCell id="_fa85mMK6ymNcFbLeZfS-23" value="审计日志" style="text;strokeColor=none;fillColor=none;align=left;verticalAlign=top;spacingLeft=4;spacingRight=4;overflow=hidden;rotatable=0;points=[[0,0.5],[1,0.5]];portConstraint=eastwest;labelBackgroundColor=none;comic=0;sketch=1;fontSize=15;fontColor=#000000;" parent="_fa85mMK6ymNcFbLeZfS-17" vertex="1">
          <mxGeometry y="156" width="140" height="26" as="geometry" />
        </mxCell>
        <UserObject label="&lt;font color=&quot;#000000&quot;&gt;联盟详情&lt;/font&gt;" treeRoot="1" id="_fa85mMK6ymNcFbLeZfS-25">
          <mxCell style="whiteSpace=wrap;html=1;align=center;treeFolding=1;treeMoving=1;newEdgeStyle={&quot;edgeStyle&quot;:&quot;elbowEdgeStyle&quot;,&quot;startArrow&quot;:&quot;none&quot;,&quot;endArrow&quot;:&quot;none&quot;};labelBackgroundColor=#E6E6E6;comic=0;sketch=1;fontSize=15;fontColor=#0000FF;fillColor=none;" parent="_fa85mMK6ymNcFbLeZfS-16" vertex="1">
            <mxGeometry x="160" y="39" width="710" height="171" as="geometry" />
          </mxCell>
        </UserObject>
        <mxCell id="_fa85mMK6ymNcFbLeZfS-38" value="" style="strokeWidth=1;shadow=0;dashed=0;align=center;html=1;shape=mxgraph.mockup.containers.marginRect2;rectMarginTop=32;strokeColor=#666666;gradientColor=none;labelBackgroundColor=#E6E6E6;comic=0;sketch=1;fontSize=15;fontColor=#0000FF;" parent="_fa85mMK6ymNcFbLeZfS-16" vertex="1">
          <mxGeometry x="160" y="212" width="720" height="488" as="geometry" />
        </mxCell>
        <mxCell id="_fa85mMK6ymNcFbLeZfS-39" value="联盟预览" style="strokeColor=inherit;fillColor=inherit;gradientColor=inherit;strokeWidth=1;shadow=0;dashed=0;align=center;html=1;shape=mxgraph.mockup.containers.rrect;rSize=0;fontSize=17;fontColor=#666666;gradientColor=none;labelBackgroundColor=#E6E6E6;comic=0;sketch=1;" parent="_fa85mMK6ymNcFbLeZfS-38" vertex="1">
          <mxGeometry width="60" height="25" relative="1" as="geometry">
            <mxPoint x="10" as="offset" />
          </mxGeometry>
        </mxCell>
        <mxCell id="_fa85mMK6ymNcFbLeZfS-40" value="&lt;font color=&quot;#0000ff&quot;&gt;自定义函数&lt;/font&gt;" style="strokeWidth=1;shadow=0;dashed=0;align=center;html=1;shape=mxgraph.mockup.containers.rrect;rSize=0;fontSize=17;fontColor=#ffffff;strokeColor=#008cff;fillColor=#008cff;labelBackgroundColor=#E6E6E6;comic=0;sketch=1;" parent="_fa85mMK6ymNcFbLeZfS-38" vertex="1">
          <mxGeometry width="60" height="25" relative="1" as="geometry">
            <mxPoint x="320" as="offset" />
          </mxGeometry>
        </mxCell>
        <mxCell id="_fa85mMK6ymNcFbLeZfS-41" value="合作方管理" style="strokeColor=inherit;fillColor=inherit;gradientColor=inherit;strokeWidth=1;shadow=0;dashed=0;align=center;html=1;shape=mxgraph.mockup.containers.rrect;rSize=0;fontSize=17;fontColor=#666666;gradientColor=none;labelBackgroundColor=#E6E6E6;comic=0;sketch=1;" parent="_fa85mMK6ymNcFbLeZfS-38" vertex="1">
          <mxGeometry width="60" height="25" relative="1" as="geometry">
            <mxPoint x="104" as="offset" />
          </mxGeometry>
        </mxCell>
        <mxCell id="_fa85mMK6ymNcFbLeZfS-42" value="" style="strokeWidth=1;shadow=0;dashed=0;align=center;html=1;shape=mxgraph.mockup.containers.topButton;rSize=5;strokeColor=#008cff;fillColor=#008cff;gradientColor=none;resizeWidth=1;movable=0;deletable=1;labelBackgroundColor=#E6E6E6;comic=0;sketch=1;fontSize=15;fontColor=#0000FF;" parent="_fa85mMK6ymNcFbLeZfS-38" vertex="1">
          <mxGeometry width="710" height="7" relative="1" as="geometry">
            <mxPoint y="25" as="offset" />
          </mxGeometry>
        </mxCell>
        <mxCell id="_fa85mMK6ymNcFbLeZfS-43" value="合作方数据" style="strokeColor=inherit;fillColor=inherit;gradientColor=inherit;strokeWidth=1;shadow=0;dashed=0;align=center;html=1;shape=mxgraph.mockup.containers.rrect;rSize=0;fontSize=17;fontColor=#666666;gradientColor=none;labelBackgroundColor=#E6E6E6;comic=0;sketch=1;" parent="_fa85mMK6ymNcFbLeZfS-38" vertex="1">
          <mxGeometry width="60" height="25" relative="1" as="geometry">
            <mxPoint x="210" as="offset" />
          </mxGeometry>
        </mxCell>
        <mxCell id="_fa85mMK6ymNcFbLeZfS-44" value="可信计算环境" style="strokeColor=inherit;fillColor=inherit;gradientColor=inherit;strokeWidth=1;shadow=0;dashed=0;align=center;html=1;shape=mxgraph.mockup.containers.rrect;rSize=0;fontSize=17;fontColor=#666666;gradientColor=none;labelBackgroundColor=#E6E6E6;comic=0;sketch=1;" parent="_fa85mMK6ymNcFbLeZfS-38" vertex="1">
          <mxGeometry x="430" width="60" height="25.416666666666664" as="geometry" />
        </mxCell>
        <mxCell id="oAJzMptCtqDwiKWxb2wn-0" value="函数名" style="strokeWidth=1;shadow=0;dashed=0;align=center;html=1;shape=mxgraph.mockup.forms.uRect;fontSize=17;fontColor=#666666;align=left;spacingLeft=5;strokeColor=#666666;labelBackgroundColor=#E6E6E6;comic=0;sketch=1;fillColor=none;" parent="_fa85mMK6ymNcFbLeZfS-38" vertex="1">
          <mxGeometry x="40" y="96" width="70" height="30" as="geometry" />
        </mxCell>
        <mxCell id="oAJzMptCtqDwiKWxb2wn-2" value="包名" style="strokeWidth=1;shadow=0;dashed=0;align=center;html=1;shape=mxgraph.mockup.forms.uRect;fontSize=17;fontColor=#666666;align=left;spacingLeft=5;strokeColor=#666666;labelBackgroundColor=#E6E6E6;comic=0;sketch=1;fillColor=none;" parent="_fa85mMK6ymNcFbLeZfS-38" vertex="1">
          <mxGeometry x="150" y="96" width="50" height="30" as="geometry" />
        </mxCell>
        <mxCell id="oAJzMptCtqDwiKWxb2wn-6" value="合作方" style="strokeWidth=1;shadow=0;dashed=0;align=center;html=1;shape=mxgraph.mockup.forms.uRect;fontSize=17;fontColor=#666666;align=left;spacingLeft=5;strokeColor=#666666;labelBackgroundColor=#E6E6E6;comic=0;sketch=1;fillColor=none;" parent="_fa85mMK6ymNcFbLeZfS-38" vertex="1">
          <mxGeometry x="390" y="96" width="70" height="30" as="geometry" />
        </mxCell>
        <mxCell id="oAJzMptCtqDwiKWxb2wn-5" value="方法名" style="strokeWidth=1;shadow=0;dashed=0;align=center;html=1;shape=mxgraph.mockup.forms.uRect;fontSize=17;fontColor=#666666;align=left;spacingLeft=5;strokeColor=#666666;labelBackgroundColor=#E6E6E6;comic=0;sketch=1;fillColor=none;" parent="_fa85mMK6ymNcFbLeZfS-38" vertex="1">
          <mxGeometry x="310" y="96" width="70" height="30" as="geometry" />
        </mxCell>
        <mxCell id="oAJzMptCtqDwiKWxb2wn-4" value="添加时间" style="strokeWidth=1;shadow=0;dashed=0;align=center;html=1;shape=mxgraph.mockup.forms.uRect;fontSize=17;fontColor=#666666;align=left;spacingLeft=5;strokeColor=#666666;labelBackgroundColor=#E6E6E6;comic=0;sketch=1;fillColor=none;" parent="_fa85mMK6ymNcFbLeZfS-38" vertex="1">
          <mxGeometry x="470" y="96" width="80" height="30" as="geometry" />
        </mxCell>
        <mxCell id="oAJzMptCtqDwiKWxb2wn-3" value="类名" style="strokeWidth=1;shadow=0;dashed=0;align=center;html=1;shape=mxgraph.mockup.forms.uRect;fontSize=17;fontColor=#666666;align=left;spacingLeft=5;strokeColor=#666666;labelBackgroundColor=#E6E6E6;comic=0;sketch=1;fillColor=none;" parent="_fa85mMK6ymNcFbLeZfS-38" vertex="1">
          <mxGeometry x="240" y="96" width="46" height="30" as="geometry" />
        </mxCell>
        <mxCell id="oAJzMptCtqDwiKWxb2wn-7" value="描述" style="strokeWidth=1;shadow=0;dashed=0;align=center;html=1;shape=mxgraph.mockup.forms.uRect;fontSize=17;fontColor=#666666;align=left;spacingLeft=5;strokeColor=#666666;labelBackgroundColor=#E6E6E6;comic=0;sketch=1;fillColor=none;" parent="_fa85mMK6ymNcFbLeZfS-38" vertex="1">
          <mxGeometry x="565" y="96" width="50" height="30" as="geometry" />
        </mxCell>
        <mxCell id="oAJzMptCtqDwiKWxb2wn-8" value="操作" style="strokeWidth=1;shadow=0;dashed=0;align=center;html=1;shape=mxgraph.mockup.forms.uRect;fontSize=17;fontColor=#666666;align=left;spacingLeft=5;strokeColor=#666666;labelBackgroundColor=#E6E6E6;comic=0;sketch=1;fillColor=none;" parent="_fa85mMK6ymNcFbLeZfS-38" vertex="1">
          <mxGeometry x="625" y="96" width="50" height="30" as="geometry" />
        </mxCell>
        <mxCell id="oAJzMptCtqDwiKWxb2wn-122" value="" style="group" parent="_fa85mMK6ymNcFbLeZfS-38" vertex="1" connectable="0">
          <mxGeometry x="40" y="148" width="640" height="31" as="geometry" />
        </mxCell>
        <mxCell id="oAJzMptCtqDwiKWxb2wn-123" value="FUNC1" style="text;html=1;strokeColor=none;fillColor=none;align=center;verticalAlign=middle;whiteSpace=wrap;rounded=0;labelBackgroundColor=#E6E6E6;comic=0;sketch=1;fontSize=15;fontColor=#000000;" parent="oAJzMptCtqDwiKWxb2wn-122" vertex="1">
          <mxGeometry width="60" height="30" as="geometry" />
        </mxCell>
        <mxCell id="oAJzMptCtqDwiKWxb2wn-124" value="com.huawei.udf" style="text;html=1;strokeColor=none;fillColor=none;align=center;verticalAlign=middle;whiteSpace=wrap;rounded=0;labelBackgroundColor=#E6E6E6;comic=0;sketch=1;fontSize=15;fontColor=#000000;" parent="oAJzMptCtqDwiKWxb2wn-122" vertex="1">
          <mxGeometry x="100" width="60" height="30" as="geometry" />
        </mxCell>
        <mxCell id="oAJzMptCtqDwiKWxb2wn-125" value="UDFTest" style="text;html=1;strokeColor=none;fillColor=none;align=center;verticalAlign=middle;whiteSpace=wrap;rounded=0;labelBackgroundColor=#E6E6E6;comic=0;sketch=1;fontSize=15;fontColor=#000000;" parent="oAJzMptCtqDwiKWxb2wn-122" vertex="1">
          <mxGeometry x="193" width="60" height="30" as="geometry" />
        </mxCell>
        <mxCell id="oAJzMptCtqDwiKWxb2wn-126" value="evaluate" style="text;html=1;strokeColor=none;fillColor=none;align=center;verticalAlign=middle;whiteSpace=wrap;rounded=0;labelBackgroundColor=#E6E6E6;comic=0;sketch=1;fontSize=15;fontColor=#000000;" parent="oAJzMptCtqDwiKWxb2wn-122" vertex="1">
          <mxGeometry x="275" width="60" height="30" as="geometry" />
        </mxCell>
        <mxCell id="oAJzMptCtqDwiKWxb2wn-127" value="ei_tics" style="text;html=1;strokeColor=none;fillColor=none;align=center;verticalAlign=middle;whiteSpace=wrap;rounded=0;labelBackgroundColor=#E6E6E6;comic=0;sketch=1;fontSize=15;fontColor=#000000;" parent="oAJzMptCtqDwiKWxb2wn-122" vertex="1">
          <mxGeometry x="355" width="60" height="30" as="geometry" />
        </mxCell>
        <mxCell id="oAJzMptCtqDwiKWxb2wn-128" value="2021.11.27" style="text;html=1;strokeColor=none;fillColor=none;align=center;verticalAlign=middle;whiteSpace=wrap;rounded=0;labelBackgroundColor=#E6E6E6;comic=0;sketch=1;fontSize=15;fontColor=#000000;" parent="oAJzMptCtqDwiKWxb2wn-122" vertex="1">
          <mxGeometry x="440" width="60" height="30" as="geometry" />
        </mxCell>
        <mxCell id="oAJzMptCtqDwiKWxb2wn-129" value="" style="shape=image;html=1;verticalAlign=top;verticalLabelPosition=bottom;labelBackgroundColor=#ffffff;imageAspect=0;aspect=fixed;image=https://cdn4.iconfinder.com/data/icons/icocentre-free-icons/114/f-cross_256-128.png;sketch=1;comic=0;fontSize=15;fontColor=#000000;fillColor=none;" parent="oAJzMptCtqDwiKWxb2wn-122" vertex="1">
          <mxGeometry x="610" y="9" width="14" height="14" as="geometry" />
        </mxCell>
        <mxCell id="oAJzMptCtqDwiKWxb2wn-130" value="&lt;span style=&quot;color: rgba(0 , 0 , 0 , 0) ; font-family: monospace ; font-size: 0px ; background-color: rgb(248 , 249 , 250)&quot;&gt;%3CmxGraphModel%3E%3Croot%3E%3CmxCell%20id%3D%220%22%2F%3E%3CmxCell%20id%3D%221%22%20parent%3D%220%22%2F%3E%3CmxCell%20id%3D%222%22%20value%3D%22ei_tics%22%20style%3D%22text%3Bhtml%3D1%3BstrokeColor%3Dnone%3BfillColor%3Dnone%3Balign%3Dcenter%3BverticalAlign%3Dmiddle%3BwhiteSpace%3Dwrap%3Brounded%3D0%3BlabelBackgroundColor%3D%23E6E6E6%3Bcomic%3D0%3Bsketch%3D1%3BfontSize%3D15%3BfontColor%3D%23000000%3B%22%20vertex%3D%221%22%20parent%3D%221%22%3E%3CmxGeometry%20x%3D%22605%22%20y%3D%22370%22%20width%3D%2260%22%20height%3D%2230%22%20as%3D%22geometry%22%2F%3E%3C%2FmxCell%3E%3C%2Froot%3E%3C%2FmxGraphModel%3E&lt;/span&gt;&lt;span style=&quot;color: rgba(0 , 0 , 0 , 0) ; font-family: monospace ; font-size: 0px ; background-color: rgb(248 , 249 , 250)&quot;&gt;%3CmxGraphModel%3E%3Croot%3E%3CmxCell%20id%3D%220%22%2F%3E%3CmxCell%20id%3D%221%22%20parent%3D%220%22%2F%3E%3CmxCell%20id%3D%222%22%20value%3D%22ei_tics%22%20style%3D%22text%3Bhtml%3D1%3BstrokeColor%3Dnone%3BfillColor%3Dnone%3Balign%3Dcenter%3BverticalAlign%3Dmiddle%3BwhiteSpace%3Dwrap%3Brounded%3D0%3BlabelBackgroundColor%3D%23E6E6E6%3Bcomic%3D0%3Bsketch%3D1%3BfontSize%3D15%3BfontColor%3D%23000000%3B%22%20vertex%3D%221%22%20parent%3D%221%22%3E%3CmxGeometry%20x%3D%22605%22%20y%3D%22370%22%20width%3D%2260%22%20height%3D%2230%22%20as%3D%22geometry%22%2F%3E%3C%2FmxCell%3E%3C%2Froot%3E%3C%2FmxGraphModel%3E&lt;/span&gt;" style="rounded=1;whiteSpace=wrap;html=1;labelBackgroundColor=#E6E6E6;comic=0;sketch=1;fontSize=15;fontColor=#000000;fillColor=none;" parent="oAJzMptCtqDwiKWxb2wn-122" vertex="1">
          <mxGeometry y="1" width="640" height="30" as="geometry" />
        </mxCell>
        <mxCell id="oAJzMptCtqDwiKWxb2wn-131" value="" style="dashed=0;aspect=fixed;verticalLabelPosition=bottom;verticalAlign=top;align=center;shape=mxgraph.gmdl.edit;strokeColor=none;fillColor=#737373;shadow=0;sketch=0;labelBackgroundColor=#E6E6E6;comic=0;fontSize=15;fontColor=#000000;" parent="oAJzMptCtqDwiKWxb2wn-122" vertex="1">
          <mxGeometry x="585" y="9" width="20" height="20" as="geometry" />
        </mxCell>
        <mxCell id="oAJzMptCtqDwiKWxb2wn-132" value="" style="group" parent="_fa85mMK6ymNcFbLeZfS-38" vertex="1" connectable="0">
          <mxGeometry x="40" y="188" width="640" height="31" as="geometry" />
        </mxCell>
        <mxCell id="oAJzMptCtqDwiKWxb2wn-133" value="FUNC1" style="text;html=1;strokeColor=none;fillColor=none;align=center;verticalAlign=middle;whiteSpace=wrap;rounded=0;labelBackgroundColor=#E6E6E6;comic=0;sketch=1;fontSize=15;fontColor=#000000;" parent="oAJzMptCtqDwiKWxb2wn-132" vertex="1">
          <mxGeometry width="60" height="30" as="geometry" />
        </mxCell>
        <mxCell id="oAJzMptCtqDwiKWxb2wn-134" value="com.huawei.udf" style="text;html=1;strokeColor=none;fillColor=none;align=center;verticalAlign=middle;whiteSpace=wrap;rounded=0;labelBackgroundColor=#E6E6E6;comic=0;sketch=1;fontSize=15;fontColor=#000000;" parent="oAJzMptCtqDwiKWxb2wn-132" vertex="1">
          <mxGeometry x="100" width="60" height="30" as="geometry" />
        </mxCell>
        <mxCell id="oAJzMptCtqDwiKWxb2wn-135" value="UDFTest" style="text;html=1;strokeColor=none;fillColor=none;align=center;verticalAlign=middle;whiteSpace=wrap;rounded=0;labelBackgroundColor=#E6E6E6;comic=0;sketch=1;fontSize=15;fontColor=#000000;" parent="oAJzMptCtqDwiKWxb2wn-132" vertex="1">
          <mxGeometry x="193" width="60" height="30" as="geometry" />
        </mxCell>
        <mxCell id="oAJzMptCtqDwiKWxb2wn-136" value="evaluate" style="text;html=1;strokeColor=none;fillColor=none;align=center;verticalAlign=middle;whiteSpace=wrap;rounded=0;labelBackgroundColor=#E6E6E6;comic=0;sketch=1;fontSize=15;fontColor=#000000;" parent="oAJzMptCtqDwiKWxb2wn-132" vertex="1">
          <mxGeometry x="275" width="60" height="30" as="geometry" />
        </mxCell>
        <mxCell id="oAJzMptCtqDwiKWxb2wn-137" value="ei_tics" style="text;html=1;strokeColor=none;fillColor=none;align=center;verticalAlign=middle;whiteSpace=wrap;rounded=0;labelBackgroundColor=#E6E6E6;comic=0;sketch=1;fontSize=15;fontColor=#000000;" parent="oAJzMptCtqDwiKWxb2wn-132" vertex="1">
          <mxGeometry x="355" width="60" height="30" as="geometry" />
        </mxCell>
        <mxCell id="oAJzMptCtqDwiKWxb2wn-138" value="2021.11.27" style="text;html=1;strokeColor=none;fillColor=none;align=center;verticalAlign=middle;whiteSpace=wrap;rounded=0;labelBackgroundColor=#E6E6E6;comic=0;sketch=1;fontSize=15;fontColor=#000000;" parent="oAJzMptCtqDwiKWxb2wn-132" vertex="1">
          <mxGeometry x="440" width="60" height="30" as="geometry" />
        </mxCell>
        <mxCell id="oAJzMptCtqDwiKWxb2wn-139" value="" style="shape=image;html=1;verticalAlign=top;verticalLabelPosition=bottom;labelBackgroundColor=#ffffff;imageAspect=0;aspect=fixed;image=https://cdn4.iconfinder.com/data/icons/icocentre-free-icons/114/f-cross_256-128.png;sketch=1;comic=0;fontSize=15;fontColor=#000000;fillColor=none;" parent="oAJzMptCtqDwiKWxb2wn-132" vertex="1">
          <mxGeometry x="610" y="9" width="14" height="14" as="geometry" />
        </mxCell>
        <mxCell id="oAJzMptCtqDwiKWxb2wn-140" value="&lt;span style=&quot;color: rgba(0 , 0 , 0 , 0) ; font-family: monospace ; font-size: 0px ; background-color: rgb(248 , 249 , 250)&quot;&gt;%3CmxGraphModel%3E%3Croot%3E%3CmxCell%20id%3D%220%22%2F%3E%3CmxCell%20id%3D%221%22%20parent%3D%220%22%2F%3E%3CmxCell%20id%3D%222%22%20value%3D%22ei_tics%22%20style%3D%22text%3Bhtml%3D1%3BstrokeColor%3Dnone%3BfillColor%3Dnone%3Balign%3Dcenter%3BverticalAlign%3Dmiddle%3BwhiteSpace%3Dwrap%3Brounded%3D0%3BlabelBackgroundColor%3D%23E6E6E6%3Bcomic%3D0%3Bsketch%3D1%3BfontSize%3D15%3BfontColor%3D%23000000%3B%22%20vertex%3D%221%22%20parent%3D%221%22%3E%3CmxGeometry%20x%3D%22605%22%20y%3D%22370%22%20width%3D%2260%22%20height%3D%2230%22%20as%3D%22geometry%22%2F%3E%3C%2FmxCell%3E%3C%2Froot%3E%3C%2FmxGraphModel%3E&lt;/span&gt;&lt;span style=&quot;color: rgba(0 , 0 , 0 , 0) ; font-family: monospace ; font-size: 0px ; background-color: rgb(248 , 249 , 250)&quot;&gt;%3CmxGraphModel%3E%3Croot%3E%3CmxCell%20id%3D%220%22%2F%3E%3CmxCell%20id%3D%221%22%20parent%3D%220%22%2F%3E%3CmxCell%20id%3D%222%22%20value%3D%22ei_tics%22%20style%3D%22text%3Bhtml%3D1%3BstrokeColor%3Dnone%3BfillColor%3Dnone%3Balign%3Dcenter%3BverticalAlign%3Dmiddle%3BwhiteSpace%3Dwrap%3Brounded%3D0%3BlabelBackgroundColor%3D%23E6E6E6%3Bcomic%3D0%3Bsketch%3D1%3BfontSize%3D15%3BfontColor%3D%23000000%3B%22%20vertex%3D%221%22%20parent%3D%221%22%3E%3CmxGeometry%20x%3D%22605%22%20y%3D%22370%22%20width%3D%2260%22%20height%3D%2230%22%20as%3D%22geometry%22%2F%3E%3C%2FmxCell%3E%3C%2Froot%3E%3C%2FmxGraphModel%3E&lt;/span&gt;" style="rounded=1;whiteSpace=wrap;html=1;labelBackgroundColor=#E6E6E6;comic=0;sketch=1;fontSize=15;fontColor=#000000;fillColor=none;" parent="oAJzMptCtqDwiKWxb2wn-132" vertex="1">
          <mxGeometry y="1" width="640" height="30" as="geometry" />
        </mxCell>
        <mxCell id="oAJzMptCtqDwiKWxb2wn-141" value="" style="dashed=0;aspect=fixed;verticalLabelPosition=bottom;verticalAlign=top;align=center;shape=mxgraph.gmdl.edit;strokeColor=none;fillColor=#737373;shadow=0;sketch=0;labelBackgroundColor=#E6E6E6;comic=0;fontSize=15;fontColor=#000000;" parent="oAJzMptCtqDwiKWxb2wn-132" vertex="1">
          <mxGeometry x="585" y="9" width="20" height="20" as="geometry" />
        </mxCell>
        <mxCell id="oAJzMptCtqDwiKWxb2wn-162" value="" style="group" parent="_fa85mMK6ymNcFbLeZfS-38" vertex="1" connectable="0">
          <mxGeometry x="40" y="228.5" width="640" height="31" as="geometry" />
        </mxCell>
        <mxCell id="oAJzMptCtqDwiKWxb2wn-163" value="FUNC1" style="text;html=1;strokeColor=none;fillColor=none;align=center;verticalAlign=middle;whiteSpace=wrap;rounded=0;labelBackgroundColor=#E6E6E6;comic=0;sketch=1;fontSize=15;fontColor=#000000;" parent="oAJzMptCtqDwiKWxb2wn-162" vertex="1">
          <mxGeometry width="60" height="30" as="geometry" />
        </mxCell>
        <mxCell id="oAJzMptCtqDwiKWxb2wn-164" value="com.huawei.udf" style="text;html=1;strokeColor=none;fillColor=none;align=center;verticalAlign=middle;whiteSpace=wrap;rounded=0;labelBackgroundColor=#E6E6E6;comic=0;sketch=1;fontSize=15;fontColor=#000000;" parent="oAJzMptCtqDwiKWxb2wn-162" vertex="1">
          <mxGeometry x="100" width="60" height="30" as="geometry" />
        </mxCell>
        <mxCell id="oAJzMptCtqDwiKWxb2wn-165" value="UDFTest" style="text;html=1;strokeColor=none;fillColor=none;align=center;verticalAlign=middle;whiteSpace=wrap;rounded=0;labelBackgroundColor=#E6E6E6;comic=0;sketch=1;fontSize=15;fontColor=#000000;" parent="oAJzMptCtqDwiKWxb2wn-162" vertex="1">
          <mxGeometry x="193" width="60" height="30" as="geometry" />
        </mxCell>
        <mxCell id="oAJzMptCtqDwiKWxb2wn-166" value="evaluate" style="text;html=1;strokeColor=none;fillColor=none;align=center;verticalAlign=middle;whiteSpace=wrap;rounded=0;labelBackgroundColor=#E6E6E6;comic=0;sketch=1;fontSize=15;fontColor=#000000;" parent="oAJzMptCtqDwiKWxb2wn-162" vertex="1">
          <mxGeometry x="275" width="60" height="30" as="geometry" />
        </mxCell>
        <mxCell id="oAJzMptCtqDwiKWxb2wn-167" value="ei_tics" style="text;html=1;strokeColor=none;fillColor=none;align=center;verticalAlign=middle;whiteSpace=wrap;rounded=0;labelBackgroundColor=#E6E6E6;comic=0;sketch=1;fontSize=15;fontColor=#000000;" parent="oAJzMptCtqDwiKWxb2wn-162" vertex="1">
          <mxGeometry x="355" width="60" height="30" as="geometry" />
        </mxCell>
        <mxCell id="oAJzMptCtqDwiKWxb2wn-168" value="2021.11.27" style="text;html=1;strokeColor=none;fillColor=none;align=center;verticalAlign=middle;whiteSpace=wrap;rounded=0;labelBackgroundColor=#E6E6E6;comic=0;sketch=1;fontSize=15;fontColor=#000000;" parent="oAJzMptCtqDwiKWxb2wn-162" vertex="1">
          <mxGeometry x="440" width="60" height="30" as="geometry" />
        </mxCell>
        <mxCell id="oAJzMptCtqDwiKWxb2wn-169" value="" style="shape=image;html=1;verticalAlign=top;verticalLabelPosition=bottom;labelBackgroundColor=#ffffff;imageAspect=0;aspect=fixed;image=https://cdn4.iconfinder.com/data/icons/icocentre-free-icons/114/f-cross_256-128.png;sketch=1;comic=0;fontSize=15;fontColor=#000000;fillColor=none;" parent="oAJzMptCtqDwiKWxb2wn-162" vertex="1">
          <mxGeometry x="610" y="9" width="14" height="14" as="geometry" />
        </mxCell>
        <mxCell id="oAJzMptCtqDwiKWxb2wn-170" value="&lt;span style=&quot;color: rgba(0 , 0 , 0 , 0) ; font-family: monospace ; font-size: 0px ; background-color: rgb(248 , 249 , 250)&quot;&gt;%3CmxGraphModel%3E%3Croot%3E%3CmxCell%20id%3D%220%22%2F%3E%3CmxCell%20id%3D%221%22%20parent%3D%220%22%2F%3E%3CmxCell%20id%3D%222%22%20value%3D%22ei_tics%22%20style%3D%22text%3Bhtml%3D1%3BstrokeColor%3Dnone%3BfillColor%3Dnone%3Balign%3Dcenter%3BverticalAlign%3Dmiddle%3BwhiteSpace%3Dwrap%3Brounded%3D0%3BlabelBackgroundColor%3D%23E6E6E6%3Bcomic%3D0%3Bsketch%3D1%3BfontSize%3D15%3BfontColor%3D%23000000%3B%22%20vertex%3D%221%22%20parent%3D%221%22%3E%3CmxGeometry%20x%3D%22605%22%20y%3D%22370%22%20width%3D%2260%22%20height%3D%2230%22%20as%3D%22geometry%22%2F%3E%3C%2FmxCell%3E%3C%2Froot%3E%3C%2FmxGraphModel%3E&lt;/span&gt;&lt;span style=&quot;color: rgba(0 , 0 , 0 , 0) ; font-family: monospace ; font-size: 0px ; background-color: rgb(248 , 249 , 250)&quot;&gt;%3CmxGraphModel%3E%3Croot%3E%3CmxCell%20id%3D%220%22%2F%3E%3CmxCell%20id%3D%221%22%20parent%3D%220%22%2F%3E%3CmxCell%20id%3D%222%22%20value%3D%22ei_tics%22%20style%3D%22text%3Bhtml%3D1%3BstrokeColor%3Dnone%3BfillColor%3Dnone%3Balign%3Dcenter%3BverticalAlign%3Dmiddle%3BwhiteSpace%3Dwrap%3Brounded%3D0%3BlabelBackgroundColor%3D%23E6E6E6%3Bcomic%3D0%3Bsketch%3D1%3BfontSize%3D15%3BfontColor%3D%23000000%3B%22%20vertex%3D%221%22%20parent%3D%221%22%3E%3CmxGeometry%20x%3D%22605%22%20y%3D%22370%22%20width%3D%2260%22%20height%3D%2230%22%20as%3D%22geometry%22%2F%3E%3C%2FmxCell%3E%3C%2Froot%3E%3C%2FmxGraphModel%3E&lt;/span&gt;" style="rounded=1;whiteSpace=wrap;html=1;labelBackgroundColor=#E6E6E6;comic=0;sketch=1;fontSize=15;fontColor=#000000;fillColor=none;" parent="oAJzMptCtqDwiKWxb2wn-162" vertex="1">
          <mxGeometry y="1" width="640" height="30" as="geometry" />
        </mxCell>
        <mxCell id="oAJzMptCtqDwiKWxb2wn-171" value="" style="dashed=0;aspect=fixed;verticalLabelPosition=bottom;verticalAlign=top;align=center;shape=mxgraph.gmdl.edit;strokeColor=none;fillColor=#737373;shadow=0;sketch=0;labelBackgroundColor=#E6E6E6;comic=0;fontSize=15;fontColor=#000000;" parent="oAJzMptCtqDwiKWxb2wn-162" vertex="1">
          <mxGeometry x="585" y="9" width="20" height="20" as="geometry" />
        </mxCell>
        <mxCell id="oAJzMptCtqDwiKWxb2wn-152" value="" style="group" parent="_fa85mMK6ymNcFbLeZfS-38" vertex="1" connectable="0">
          <mxGeometry x="40" y="307" width="640" height="31" as="geometry" />
        </mxCell>
        <mxCell id="oAJzMptCtqDwiKWxb2wn-153" value="FUNC1" style="text;html=1;strokeColor=none;fillColor=none;align=center;verticalAlign=middle;whiteSpace=wrap;rounded=0;labelBackgroundColor=#E6E6E6;comic=0;sketch=1;fontSize=15;fontColor=#000000;" parent="oAJzMptCtqDwiKWxb2wn-152" vertex="1">
          <mxGeometry width="60" height="30" as="geometry" />
        </mxCell>
        <mxCell id="oAJzMptCtqDwiKWxb2wn-154" value="com.huawei.udf" style="text;html=1;strokeColor=none;fillColor=none;align=center;verticalAlign=middle;whiteSpace=wrap;rounded=0;labelBackgroundColor=#E6E6E6;comic=0;sketch=1;fontSize=15;fontColor=#000000;" parent="oAJzMptCtqDwiKWxb2wn-152" vertex="1">
          <mxGeometry x="100" width="60" height="30" as="geometry" />
        </mxCell>
        <mxCell id="oAJzMptCtqDwiKWxb2wn-155" value="UDFTest" style="text;html=1;strokeColor=none;fillColor=none;align=center;verticalAlign=middle;whiteSpace=wrap;rounded=0;labelBackgroundColor=#E6E6E6;comic=0;sketch=1;fontSize=15;fontColor=#000000;" parent="oAJzMptCtqDwiKWxb2wn-152" vertex="1">
          <mxGeometry x="193" width="60" height="30" as="geometry" />
        </mxCell>
        <mxCell id="oAJzMptCtqDwiKWxb2wn-156" value="evaluate" style="text;html=1;strokeColor=none;fillColor=none;align=center;verticalAlign=middle;whiteSpace=wrap;rounded=0;labelBackgroundColor=#E6E6E6;comic=0;sketch=1;fontSize=15;fontColor=#000000;" parent="oAJzMptCtqDwiKWxb2wn-152" vertex="1">
          <mxGeometry x="275" width="60" height="30" as="geometry" />
        </mxCell>
        <mxCell id="oAJzMptCtqDwiKWxb2wn-157" value="ei_tics" style="text;html=1;strokeColor=none;fillColor=none;align=center;verticalAlign=middle;whiteSpace=wrap;rounded=0;labelBackgroundColor=#E6E6E6;comic=0;sketch=1;fontSize=15;fontColor=#000000;" parent="oAJzMptCtqDwiKWxb2wn-152" vertex="1">
          <mxGeometry x="355" width="60" height="30" as="geometry" />
        </mxCell>
        <mxCell id="oAJzMptCtqDwiKWxb2wn-158" value="2021.11.27" style="text;html=1;strokeColor=none;fillColor=none;align=center;verticalAlign=middle;whiteSpace=wrap;rounded=0;labelBackgroundColor=#E6E6E6;comic=0;sketch=1;fontSize=15;fontColor=#000000;" parent="oAJzMptCtqDwiKWxb2wn-152" vertex="1">
          <mxGeometry x="440" width="60" height="30" as="geometry" />
        </mxCell>
        <mxCell id="oAJzMptCtqDwiKWxb2wn-159" value="" style="shape=image;html=1;verticalAlign=top;verticalLabelPosition=bottom;labelBackgroundColor=#ffffff;imageAspect=0;aspect=fixed;image=https://cdn4.iconfinder.com/data/icons/icocentre-free-icons/114/f-cross_256-128.png;sketch=1;comic=0;fontSize=15;fontColor=#000000;fillColor=none;" parent="oAJzMptCtqDwiKWxb2wn-152" vertex="1">
          <mxGeometry x="610" y="9" width="14" height="14" as="geometry" />
        </mxCell>
        <mxCell id="oAJzMptCtqDwiKWxb2wn-160" value="&lt;span style=&quot;color: rgba(0 , 0 , 0 , 0) ; font-family: monospace ; font-size: 0px ; background-color: rgb(248 , 249 , 250)&quot;&gt;%3CmxGraphModel%3E%3Croot%3E%3CmxCell%20id%3D%220%22%2F%3E%3CmxCell%20id%3D%221%22%20parent%3D%220%22%2F%3E%3CmxCell%20id%3D%222%22%20value%3D%22ei_tics%22%20style%3D%22text%3Bhtml%3D1%3BstrokeColor%3Dnone%3BfillColor%3Dnone%3Balign%3Dcenter%3BverticalAlign%3Dmiddle%3BwhiteSpace%3Dwrap%3Brounded%3D0%3BlabelBackgroundColor%3D%23E6E6E6%3Bcomic%3D0%3Bsketch%3D1%3BfontSize%3D15%3BfontColor%3D%23000000%3B%22%20vertex%3D%221%22%20parent%3D%221%22%3E%3CmxGeometry%20x%3D%22605%22%20y%3D%22370%22%20width%3D%2260%22%20height%3D%2230%22%20as%3D%22geometry%22%2F%3E%3C%2FmxCell%3E%3C%2Froot%3E%3C%2FmxGraphModel%3E&lt;/span&gt;&lt;span style=&quot;color: rgba(0 , 0 , 0 , 0) ; font-family: monospace ; font-size: 0px ; background-color: rgb(248 , 249 , 250)&quot;&gt;%3CmxGraphModel%3E%3Croot%3E%3CmxCell%20id%3D%220%22%2F%3E%3CmxCell%20id%3D%221%22%20parent%3D%220%22%2F%3E%3CmxCell%20id%3D%222%22%20value%3D%22ei_tics%22%20style%3D%22text%3Bhtml%3D1%3BstrokeColor%3Dnone%3BfillColor%3Dnone%3Balign%3Dcenter%3BverticalAlign%3Dmiddle%3BwhiteSpace%3Dwrap%3Brounded%3D0%3BlabelBackgroundColor%3D%23E6E6E6%3Bcomic%3D0%3Bsketch%3D1%3BfontSize%3D15%3BfontColor%3D%23000000%3B%22%20vertex%3D%221%22%20parent%3D%221%22%3E%3CmxGeometry%20x%3D%22605%22%20y%3D%22370%22%20width%3D%2260%22%20height%3D%2230%22%20as%3D%22geometry%22%2F%3E%3C%2FmxCell%3E%3C%2Froot%3E%3C%2FmxGraphModel%3E&lt;/span&gt;" style="rounded=1;whiteSpace=wrap;html=1;labelBackgroundColor=#E6E6E6;comic=0;sketch=1;fontSize=15;fontColor=#000000;fillColor=none;" parent="oAJzMptCtqDwiKWxb2wn-152" vertex="1">
          <mxGeometry y="1" width="640" height="30" as="geometry" />
        </mxCell>
        <mxCell id="oAJzMptCtqDwiKWxb2wn-161" value="" style="dashed=0;aspect=fixed;verticalLabelPosition=bottom;verticalAlign=top;align=center;shape=mxgraph.gmdl.edit;strokeColor=none;fillColor=#737373;shadow=0;sketch=0;labelBackgroundColor=#E6E6E6;comic=0;fontSize=15;fontColor=#000000;" parent="oAJzMptCtqDwiKWxb2wn-152" vertex="1">
          <mxGeometry x="585" y="9" width="20" height="20" as="geometry" />
        </mxCell>
        <mxCell id="oAJzMptCtqDwiKWxb2wn-172" value="Search" style="strokeWidth=1;shadow=0;dashed=0;align=center;html=1;shape=mxgraph.mockup.forms.searchBox;strokeColor=#999999;mainText=;strokeColor2=#008cff;fontColor=#666666;fontSize=17;align=left;spacingLeft=3;labelBackgroundColor=#E6E6E6;comic=0;sketch=1;fillColor=none;" parent="_fa85mMK6ymNcFbLeZfS-38" vertex="1">
          <mxGeometry x="530" y="48" width="150" height="30" as="geometry" />
        </mxCell>
        <mxCell id="7TJ8AYWmFjZWPABuEI0L-0" value="添加" style="rounded=1;html=1;shadow=0;dashed=0;whiteSpace=wrap;fontSize=10;fillColor=#dae8fc;align=center;strokeColor=#6c8ebf;sketch=1;" parent="_fa85mMK6ymNcFbLeZfS-38" vertex="1">
          <mxGeometry x="574.5" y="448" width="105.5" height="16.88" as="geometry" />
        </mxCell>
        <mxCell id="oAJzMptCtqDwiKWxb2wn-142" value="" style="group" parent="IIgY_rsshR4AEc-FguAB-1" vertex="1" connectable="0">
          <mxGeometry x="250" y="530" width="640" height="31" as="geometry" />
        </mxCell>
        <mxCell id="oAJzMptCtqDwiKWxb2wn-143" value="FUNC1" style="text;html=1;strokeColor=none;fillColor=none;align=center;verticalAlign=middle;whiteSpace=wrap;rounded=0;labelBackgroundColor=#E6E6E6;comic=0;sketch=1;fontSize=15;fontColor=#000000;" parent="oAJzMptCtqDwiKWxb2wn-142" vertex="1">
          <mxGeometry width="60" height="30" as="geometry" />
        </mxCell>
        <mxCell id="oAJzMptCtqDwiKWxb2wn-144" value="com.huawei.udf" style="text;html=1;strokeColor=none;fillColor=none;align=center;verticalAlign=middle;whiteSpace=wrap;rounded=0;labelBackgroundColor=#E6E6E6;comic=0;sketch=1;fontSize=15;fontColor=#000000;" parent="oAJzMptCtqDwiKWxb2wn-142" vertex="1">
          <mxGeometry x="100" width="60" height="30" as="geometry" />
        </mxCell>
        <mxCell id="oAJzMptCtqDwiKWxb2wn-145" value="UDFTest" style="text;html=1;strokeColor=none;fillColor=none;align=center;verticalAlign=middle;whiteSpace=wrap;rounded=0;labelBackgroundColor=#E6E6E6;comic=0;sketch=1;fontSize=15;fontColor=#000000;" parent="oAJzMptCtqDwiKWxb2wn-142" vertex="1">
          <mxGeometry x="193" width="60" height="30" as="geometry" />
        </mxCell>
        <mxCell id="oAJzMptCtqDwiKWxb2wn-146" value="evaluate" style="text;html=1;strokeColor=none;fillColor=none;align=center;verticalAlign=middle;whiteSpace=wrap;rounded=0;labelBackgroundColor=#E6E6E6;comic=0;sketch=1;fontSize=15;fontColor=#000000;" parent="oAJzMptCtqDwiKWxb2wn-142" vertex="1">
          <mxGeometry x="275" width="60" height="30" as="geometry" />
        </mxCell>
        <mxCell id="oAJzMptCtqDwiKWxb2wn-147" value="ei_tics" style="text;html=1;strokeColor=none;fillColor=none;align=center;verticalAlign=middle;whiteSpace=wrap;rounded=0;labelBackgroundColor=#E6E6E6;comic=0;sketch=1;fontSize=15;fontColor=#000000;" parent="oAJzMptCtqDwiKWxb2wn-142" vertex="1">
          <mxGeometry x="355" width="60" height="30" as="geometry" />
        </mxCell>
        <mxCell id="oAJzMptCtqDwiKWxb2wn-148" value="2021.11.27" style="text;html=1;strokeColor=none;fillColor=none;align=center;verticalAlign=middle;whiteSpace=wrap;rounded=0;labelBackgroundColor=#E6E6E6;comic=0;sketch=1;fontSize=15;fontColor=#000000;" parent="oAJzMptCtqDwiKWxb2wn-142" vertex="1">
          <mxGeometry x="440" width="60" height="30" as="geometry" />
        </mxCell>
        <mxCell id="oAJzMptCtqDwiKWxb2wn-149" value="" style="shape=image;html=1;verticalAlign=top;verticalLabelPosition=bottom;labelBackgroundColor=#ffffff;imageAspect=0;aspect=fixed;image=https://cdn4.iconfinder.com/data/icons/icocentre-free-icons/114/f-cross_256-128.png;sketch=1;comic=0;fontSize=15;fontColor=#000000;fillColor=none;" parent="oAJzMptCtqDwiKWxb2wn-142" vertex="1">
          <mxGeometry x="610" y="9" width="14" height="14" as="geometry" />
        </mxCell>
        <mxCell id="oAJzMptCtqDwiKWxb2wn-150" value="&lt;span style=&quot;color: rgba(0 , 0 , 0 , 0) ; font-family: monospace ; font-size: 0px ; background-color: rgb(248 , 249 , 250)&quot;&gt;%3CmxGraphModel%3E%3Croot%3E%3CmxCell%20id%3D%220%22%2F%3E%3CmxCell%20id%3D%221%22%20parent%3D%220%22%2F%3E%3CmxCell%20id%3D%222%22%20value%3D%22ei_tics%22%20style%3D%22text%3Bhtml%3D1%3BstrokeColor%3Dnone%3BfillColor%3Dnone%3Balign%3Dcenter%3BverticalAlign%3Dmiddle%3BwhiteSpace%3Dwrap%3Brounded%3D0%3BlabelBackgroundColor%3D%23E6E6E6%3Bcomic%3D0%3Bsketch%3D1%3BfontSize%3D15%3BfontColor%3D%23000000%3B%22%20vertex%3D%221%22%20parent%3D%221%22%3E%3CmxGeometry%20x%3D%22605%22%20y%3D%22370%22%20width%3D%2260%22%20height%3D%2230%22%20as%3D%22geometry%22%2F%3E%3C%2FmxCell%3E%3C%2Froot%3E%3C%2FmxGraphModel%3E&lt;/span&gt;&lt;span style=&quot;color: rgba(0 , 0 , 0 , 0) ; font-family: monospace ; font-size: 0px ; background-color: rgb(248 , 249 , 250)&quot;&gt;%3CmxGraphModel%3E%3Croot%3E%3CmxCell%20id%3D%220%22%2F%3E%3CmxCell%20id%3D%221%22%20parent%3D%220%22%2F%3E%3CmxCell%20id%3D%222%22%20value%3D%22ei_tics%22%20style%3D%22text%3Bhtml%3D1%3BstrokeColor%3Dnone%3BfillColor%3Dnone%3Balign%3Dcenter%3BverticalAlign%3Dmiddle%3BwhiteSpace%3Dwrap%3Brounded%3D0%3BlabelBackgroundColor%3D%23E6E6E6%3Bcomic%3D0%3Bsketch%3D1%3BfontSize%3D15%3BfontColor%3D%23000000%3B%22%20vertex%3D%221%22%20parent%3D%221%22%3E%3CmxGeometry%20x%3D%22605%22%20y%3D%22370%22%20width%3D%2260%22%20height%3D%2230%22%20as%3D%22geometry%22%2F%3E%3C%2FmxCell%3E%3C%2Froot%3E%3C%2FmxGraphModel%3E&lt;/span&gt;" style="rounded=1;whiteSpace=wrap;html=1;labelBackgroundColor=#E6E6E6;comic=0;sketch=1;fontSize=15;fontColor=#000000;fillColor=none;" parent="oAJzMptCtqDwiKWxb2wn-142" vertex="1">
          <mxGeometry y="1" width="640" height="30" as="geometry" />
        </mxCell>
        <mxCell id="oAJzMptCtqDwiKWxb2wn-151" value="" style="dashed=0;aspect=fixed;verticalLabelPosition=bottom;verticalAlign=top;align=center;shape=mxgraph.gmdl.edit;strokeColor=none;fillColor=#737373;shadow=0;sketch=0;labelBackgroundColor=#E6E6E6;comic=0;fontSize=15;fontColor=#000000;" parent="oAJzMptCtqDwiKWxb2wn-142" vertex="1">
          <mxGeometry x="585" y="9" width="20" height="20" as="geometry" />
        </mxCell>
      </root>
    </mxGraphModel>
  </diagram>
</mxfile>
